<mxfile host="app.diagrams.net" agent="Mozilla/5.0 (X11; Ubuntu; Linux x86_64; rv:132.0) Gecko/20100101 Firefox/132.0" version="24.8.4">
  <diagram name="Page-1" id="kNXrPMbxfxiBPzh5kffX">
    <mxGraphModel dx="2796" dy="2236" grid="1" gridSize="10" guides="1" tooltips="1" connect="1" arrows="1" fold="1" page="1" pageScale="1" pageWidth="850" pageHeight="1100" math="0" shadow="0">
      <root>
        <mxCell id="0" />
        <mxCell id="1" parent="0" />
        <mxCell id="cISefB18CP5rcb_1nQCM-1" value="Notes" style="text;html=1;align=center;verticalAlign=middle;whiteSpace=wrap;rounded=0;" parent="1" vertex="1">
          <mxGeometry x="640" y="650" width="150" height="70" as="geometry" />
        </mxCell>
        <mxCell id="cISefB18CP5rcb_1nQCM-9" value="&lt;div&gt;Hostname: &lt;br&gt;&lt;/div&gt;&lt;div&gt;eth0:&lt;/div&gt;&lt;div&gt;ports:&lt;br&gt;&lt;/div&gt;" style="whiteSpace=wrap;html=1;aspect=fixed;" parent="1" vertex="1">
          <mxGeometry x="-320" y="-40" width="160" height="160" as="geometry" />
        </mxCell>
        <mxCell id="cISefB18CP5rcb_1nQCM-10" value="&lt;div&gt;Hostname: Sokka&lt;br&gt;&lt;/div&gt;&lt;div&gt;eth0: 192.168.1.42/27&lt;/div&gt;&lt;div&gt;ports: 22,80&lt;br&gt;&lt;/div&gt;" style="ellipse;whiteSpace=wrap;html=1;aspect=fixed;" parent="1" vertex="1">
          <mxGeometry x="80" y="-680" width="160" height="160" as="geometry" />
        </mxCell>
        <mxCell id="cISefB18CP5rcb_1nQCM-11" value="" style="ellipse;shape=cloud;whiteSpace=wrap;html=1;align=center;" parent="1" vertex="1">
          <mxGeometry x="-330" y="-205" width="162" height="130" as="geometry" />
        </mxCell>
        <mxCell id="aCxT3g78jYSsjleZAk6e-1" value="&lt;div&gt;Hostname: &lt;br&gt;&lt;/div&gt;&lt;div&gt;eth0:&lt;/div&gt;&lt;div&gt;ports:&lt;br&gt;&lt;/div&gt;" style="whiteSpace=wrap;html=1;aspect=fixed;" parent="1" vertex="1">
          <mxGeometry x="-120" y="-40" width="160" height="160" as="geometry" />
        </mxCell>
        <mxCell id="aCxT3g78jYSsjleZAk6e-2" value="&lt;div&gt;Hostname: Aang&lt;br&gt;&lt;/div&gt;&lt;div&gt;eth0: 192.168.1.39&lt;/div&gt;&lt;div&gt;ports: 21,22,80&lt;br&gt;&lt;/div&gt;" style="ellipse;whiteSpace=wrap;html=1;aspect=fixed;" parent="1" vertex="1">
          <mxGeometry x="-120" y="-680" width="160" height="160" as="geometry" />
        </mxCell>
        <mxCell id="aCxT3g78jYSsjleZAk6e-3" value="&lt;div&gt;Hostname: &lt;br&gt;&lt;/div&gt;&lt;div&gt;eth0:&lt;/div&gt;&lt;div&gt;ports:&lt;br&gt;&lt;/div&gt;" style="whiteSpace=wrap;html=1;aspect=fixed;" parent="1" vertex="1">
          <mxGeometry x="-540" y="-40" width="160" height="160" as="geometry" />
        </mxCell>
        <mxCell id="aCxT3g78jYSsjleZAk6e-4" value="&lt;div&gt;Hostname: &lt;br&gt;&lt;/div&gt;&lt;div&gt;eth0: 192.168.1.60&lt;/div&gt;&lt;div&gt;ports:&lt;br&gt;&lt;/div&gt;" style="ellipse;whiteSpace=wrap;html=1;aspect=fixed;" parent="1" vertex="1">
          <mxGeometry x="280" y="-680" width="160" height="160" as="geometry" />
        </mxCell>
        <mxCell id="aCxT3g78jYSsjleZAk6e-7" value="&lt;div&gt;Hostname: Blue-Internet-Host&lt;br&gt;&lt;/div&gt;&lt;div&gt;eth0: 10.10.0.4&lt;/div&gt;&lt;div&gt;Float: &lt;code&gt;&lt;code&gt;&lt;code&gt;10.50.24.152&lt;/code&gt;&lt;/code&gt;&lt;/code&gt;&lt;/div&gt;" style="ellipse;whiteSpace=wrap;html=1;aspect=fixed;" parent="1" vertex="1">
          <mxGeometry x="80" y="-440" width="160" height="160" as="geometry" />
        </mxCell>
        <mxCell id="aCxT3g78jYSsjleZAk6e-13" value="&lt;div&gt;Hostname: &lt;br&gt;&lt;/div&gt;&lt;div&gt;eth0: &lt;br&gt;&lt;/div&gt;&lt;div&gt;ports: &lt;br&gt;&lt;/div&gt;" style="ellipse;whiteSpace=wrap;html=1;aspect=fixed;" parent="1" vertex="1">
          <mxGeometry x="-460" y="-680" width="160" height="160" as="geometry" />
        </mxCell>
      </root>
    </mxGraphModel>
  </diagram>
</mxfile>
